<svg xmlns="http://www.w3.org/2000/svg" width="800" height="900" viewBox="0 0 800 900"><defs>
  <linearGradient id="steel" x2="1" y2="0"><stop stop-color="#59646b"/><stop offset=".2" stop-color="#f0f4f5"/><stop offset=".48" stop-color="#a9b3b8"/><stop offset=".72" stop-color="#f8fafb"/><stop offset="1" stop-color="#657178"/></linearGradient>
  <linearGradient id="darkSteel" x2="0" y2="1"><stop stop-color="#424b50"/><stop offset=".45" stop-color="#171d20"/><stop offset="1" stop-color="#555f63"/></linearGradient>
  <linearGradient id="fabric" x2="0" y2="1"><stop stop-color="#313a40"/><stop offset="1" stop-color="#101518"/></linearGradient>
  <linearGradient id="skin" x2="1" y2="1"><stop stop-color="#ffd09d"/><stop offset=".48" stop-color="#e99a62"/><stop offset="1" stop-color="#b85e3f"/></linearGradient>
  <linearGradient id="hair" x2=".85" y2="1"><stop stop-color="#303239"/><stop offset=".53" stop-color="#11161b"/><stop offset=".78" stop-color="#087d79"/><stop offset="1" stop-color="#123e47"/></linearGradient>
  <linearGradient id="tail" x2="1" y2="1"><stop stop-color="#ffbf68"/><stop offset=".5" stop-color="#f27643"/><stop offset="1" stop-color="#d94832"/></linearGradient>
  <filter id="shadow" x="-.3" y="-.3" width="1.6" height="1.7"><feGaussianBlur stdDeviation="7"/></filter>
</defs><g stroke="#60372c" stroke-width="5" stroke-linejoin="round">
 <path d="M426 372q-17-6-27-28l-29-68q-11-24-20-49l-12-38 22-10 18 31q15 29 23 55l42 79z" fill="url(#skin)"/><path d="M519 372q17-6 27-28l29-68q11-24 20-49l12-38-22-10-18 31q-15 29-23 55l-42 79z" fill="url(#skin)"/>
 <path d="M321 180q-2-11 8-15l10 1 8 12-5 11-13 1zm279 0q2-11-8-15l-10 1-8 12 5 11 13 1z" fill="url(#skin)" stroke="#6e392d" stroke-width="4"/>
 <path d="M323 181l21 3m276-3-21 3" stroke="#ed4c40" stroke-width="8"/>
 </g><!-- articulation pivots: shoulders/elbows/wrists are intentionally jointed --></svg>